HIERARCHY
ROOT ui
{
	 OFFSET 0 0 0
	 CHANNELS 3 XPosition YPosition Z Position
	 EndSite
	 {
	 OFFSET 0 -1 0
	 }
}
ROOT li
{
	 OFFSET 0 0 0
	 CHANNELS 3 XPosition YPosition Z Position
	 EndSite
	 {
	 OFFSET 0 -1 0
	 }
}
ROOT ul
{
	 OFFSET 0 0 0
	 CHANNELS 3 XPosition YPosition Z Position
	 EndSite
	 {
	 OFFSET 0 -1 0
	 }
}
ROOT ll
{
	 OFFSET 0 0 0
	 CHANNELS 3 XPosition YPosition Z Position
	 EndSite
	 {
	 OFFSET 0 -1 0
	 }
}
ROOT tt
{
	 OFFSET 0 0 0
	 CHANNELS 3 XPosition YPosition Z Position
	 EndSite
	 {
	 OFFSET 0 -1 0
	 }
}
ROOT tb
{
	 OFFSET 0 0 0
	 CHANNELS 3 XPosition YPosition Z Position
	 EndSite
	 {
	 OFFSET 0 -1 0
	 }
}
ROOT td
{
	 OFFSET 0 0 0
	 CHANNELS 3 XPosition YPosition Z Position
	 EndSite
	 {
	 OFFSET 0 -1 0
	 }
}
ROOT v
{
	 OFFSET 0 0 0
	 CHANNELS 3 XPosition YPosition Z Position
	 EndSite
	 {
	 OFFSET 0 -1 0
	 }
}
ROOT bn
{
	 OFFSET 0 0 0
	 CHANNELS 3 XPosition YPosition Z Position
	 EndSite
	 {
	 OFFSET 0 -1 0
	 }
}
MOTION
Frames: 13
Frame Time: 0.002
-6.970970034599304E-4	-9.843980073928832E-4	0		0.5465375366210937	-2.403898193359375	0		-1.038269287109375	0.034356273651123044	0		-0.7292254028320313	-2.505824462890625	0		1.3714644775390625	-0.7636832275390625	0		3.229327880859375	-0.1518589630126953	0		4.68462744140625	-0.08076344299316406	0		5.5548896484375	0.11955934906005859	0		-0.06616166687011718	6.00379052734375	0		
-0.005748532772064209	0.003865967035293579	0		0.54868505859375	-2.402100830078125	0		-1.0384031982421875	0.034022499084472656	0		-0.7640159912109376	-2.50057958984375	0		1.3744591064453124	-0.76081689453125	0		3.19415478515625	-0.15520655822753907	0		4.68450537109375	-0.08050957489013671	0		5.55544970703125	0.10088926696777344	0		-0.10099820709228516	5.99808935546875	0		
0.0021019999980926513	0.002512433052062988	0		0.5078276977539062	-2.399637939453125	0		-1.0344774169921875	0.03762770080566406	0		-0.7130145263671875	-2.50867626953125	0		1.37644873046875	-0.757940185546875	0		3.19697509765625	-0.1591633758544922	0		4.68235009765625	-0.08224051666259766	0		5.5535400390625	0.11624298858642577	0		-0.0363317985534668	6.0228369140625	0		
0.00906165599822998	0.008178986549377442	0		0.5638712768554688	-2.403678955078125	0		-1.0265057373046875	0.044179943084716795	0		-0.755670654296875	-2.493306396484375	0		1.3794503173828125	-0.7540806884765625	0		3.22114892578125	-0.14045663452148438	0		4.69145654296875	-0.06716008758544922	0		5.5592880859375	0.10945538330078125	0		-0.10144693756103515	5.9966005859375	0		
-0.003097224950790405	0.006147922992706299	0		0.551021240234375	-2.399645751953125	0		-1.0347451171875	0.03699504852294922	0		-0.7247174682617188	-2.503065673828125	0		1.3742823486328124	-0.7610955810546876	0		3.187775390625	-0.156875	0		4.684134765625	-0.07984618377685547	0		5.5591494140625	0.10973817443847657	0		-0.10309877014160156	5.99739013671875	0		
0.0017166019678115845	0.001866806983947754	0		0.5579283447265625	-2.410910400390625	0		-1.0348721923828126	0.03670388412475586	0		-0.7246328735351563	-2.5033310546875	0		1.3742216796875	-0.76118603515625	0		3.218660888671875	-0.15728785705566406	0		4.684017578125	-0.07966087341308593	0		5.55489453125	0.10205841827392578	0		-0.1037224349975586	5.9971767578125	0		
-0.0014617370367050171	-0.0022786691188812257	0		0.5579940185546876	-2.4110595703125	0		-1.0390531005859376	0.032494747161865234	0		-0.7265903930664063	-2.505547119140625	0		1.374161865234375	-0.761273193359375	0		3.18755859375	-0.15676351928710938	0		4.68390576171875	-0.07949620056152344	0		5.55476904296875	0.10228933715820313	0		-0.10331172943115234	5.9959619140625	0		
0.0014883970022201538	0.0014982850551605224	0		0.5061604614257813	-2.40341259765625	0		-1.03510546875	0.0361856689453125	0		-0.759419677734375	-2.498275390625	0		1.3761488037109375	-0.758386962890625	0		3.207668701171875	-0.1430269775390625	0		4.6868916015625	-0.0733992919921875	0		5.5587724609375	0.11043039703369141	0		-0.1038316650390625	5.99577783203125	0		
0.0013869500160217285	0.0013369990587234497	0		0.5621676025390625	-2.406386962890625	0		-1.035208984375	0.03596182632446289	0		-0.7125413818359375	-2.510189697265625	0		1.37609326171875	-0.7584652709960937	0		3.187367431640625	-0.1566918182373047	0		4.69267333984375	-0.08136734771728515	0		5.55866455078125	0.1106044692993164	0		-0.10429484558105469	5.9956103515625	0		
0.0012954670190811158	0.0011924459934234619	0		0.5243265380859375	-2.397932373046875	0		-1.03530224609375	0.035763031005859376	0		-0.7244099731445313	-2.504192138671875	0		1.3739967041015626	-0.761507568359375	0		3.22836962890625	-0.15128602600097657	0		4.6836171875	-0.07913147735595703	0		5.56755126953125	0.10961568450927735	0		-0.10470000457763672	5.9954599609375	0		
-0.0037247209548950193	0.005139733791351318	0		0.5492750244140625	-2.40341015625	0		-1.03944384765625	0.031650117874145504	0		-0.7264088134765625	-2.5063212890625	0		1.3709053955078125	-0.7645283203125	0		3.1813310546875	-0.14856607055664062	0		4.6835400390625	-0.07905026245117187	0		5.563361328125	0.10279690551757813	0		-0.10603227996826171	5.99634326171875	0		
-0.001913465976715088	-0.0029989309310913086	0		0.5022257690429688	-2.407796875	0		-1.039513916015625	0.0315020637512207	0		-0.7633359375	-2.502905517578125	0		1.3708648681640625	-0.7645870971679688	0		3.1931767578125	-0.154736328125	0		4.68835400390625	-0.08706009674072265	0		5.54841015625	0.11111658477783203	0		-0.10632324981689453	5.9962294921875	0		
0.001090067982673645	8.637279868125915E-4	0		0.5602211303710938	-2.409738037109375	0		-1.035511474609375	0.03531853866577148	0		-0.7483775634765625	-2.50724365234375	0		1.3759210205078125	-0.7587130737304687	0		3.200960693359375	-0.16585020446777343	0		4.69239013671875	-0.08107117462158203	0		5.5632001953125	0.1009692611694336	0		-0.07229534149169922	6.01362548828125	0		
